<svg width="25" height="25" viewBox="0 0 25 25" fill="none" xmlns="http://www.w3.org/2000/svg">
<path d="M21.0195 3.57596V5.57596C21.0195 9.44195 17.8855 12.576 14.0195 12.576H13.0195V13.576H18.0195V20.576C18.0195 21.6806 17.1241 22.576 16.0195 22.576H8.01953C6.91496 22.576 6.01953 21.6806 6.01953 20.576V13.576H11.0195V10.576C11.0195 6.70997 14.1536 3.57596 18.0195 3.57596H21.0195ZM5.51953 2.57596C8.04815 2.57596 10.2845 3.82732 11.6431 5.74456C10.6241 7.0868 10.0195 8.76078 10.0195 10.576V11.576H9.51953C5.37739 11.576 2.01953 8.2181 2.01953 4.07596V2.57596H5.51953Z" fill="white"/>
</svg>
