<svg width="37" height="35" viewBox="0 0 37 35" fill="none" xmlns="http://www.w3.org/2000/svg">
<path d="M6.9375 6.75H34.6875L31.2188 21.375H10.4062M31.2188 25.875H11.5625L5.78125 2.25H2.3125" stroke="black" stroke-width="3" stroke-linecap="round" stroke-linejoin="round"/>
<path d="M28.9062 32.625C30.1834 32.625 31.2188 31.6176 31.2188 30.375C31.2188 29.1324 30.1834 28.125 28.9062 28.125C27.6291 28.125 26.5938 29.1324 26.5938 30.375C26.5938 31.6176 27.6291 32.625 28.9062 32.625Z" stroke="black" stroke-width="3" stroke-linecap="round" stroke-linejoin="round"/>
<path d="M13.875 32.625C15.1522 32.625 16.1875 31.6176 16.1875 30.375C16.1875 29.1324 15.1522 28.125 13.875 28.125C12.5978 28.125 11.5625 29.1324 11.5625 30.375C11.5625 31.6176 12.5978 32.625 13.875 32.625Z" stroke="black" stroke-width="3" stroke-linecap="round" stroke-linejoin="round"/>
</svg>
