<svg width="28" height="24" viewBox="0 0 28 24" fill="none" xmlns="http://www.w3.org/2000/svg">
<path d="M27.5 10.875V13.125C27.5 13.4234 27.3815 13.7095 27.1705 13.9205C26.9595 14.1315 26.6734 14.25 26.375 14.25H1.625C1.32663 14.25 1.04048 14.1315 0.829505 13.9205C0.618527 13.7095 0.5 13.4234 0.5 13.125V10.875C0.5 10.5766 0.618527 10.2905 0.829505 10.0795C1.04048 9.86853 1.32663 9.75 1.625 9.75H26.375C26.6734 9.75 26.9595 9.86853 27.1705 10.0795C27.3815 10.2905 27.5 10.5766 27.5 10.875ZM26.375 18.75H1.625C1.32663 18.75 1.04048 18.8685 0.829505 19.0795C0.618527 19.2905 0.5 19.5766 0.5 19.875V22.125C0.5 22.4234 0.618527 22.7095 0.829505 22.9205C1.04048 23.1315 1.32663 23.25 1.625 23.25H26.375C26.6734 23.25 26.9595 23.1315 27.1705 22.9205C27.3815 22.7095 27.5 22.4234 27.5 22.125V19.875C27.5 19.5766 27.3815 19.2905 27.1705 19.0795C26.9595 18.8685 26.6734 18.75 26.375 18.75ZM26.375 0.75H1.625C1.32663 0.75 1.04048 0.868527 0.829505 1.07951C0.618527 1.29048 0.5 1.57663 0.5 1.875V4.125C0.5 4.42337 0.618527 4.70952 0.829505 4.9205C1.04048 5.13147 1.32663 5.25 1.625 5.25H26.375C26.6734 5.25 26.9595 5.13147 27.1705 4.9205C27.3815 4.70952 27.5 4.42337 27.5 4.125V1.875C27.5 1.57663 27.3815 1.29048 27.1705 1.07951C26.9595 0.868527 26.6734 0.75 26.375 0.75Z" fill="black"/>
</svg>
