<svg width="36" height="36" viewBox="0 0 36 36" fill="none" xmlns="http://www.w3.org/2000/svg">
<g clip-path="url(#clip0_2_44)">
<path d="M25.6129 22.6831L25.0263 23.4836L25.8223 24.0763C25.882 24.1208 25.9286 24.161 25.9669 24.1998L25.9668 24.1998L25.9711 24.2041L34.6334 32.8663C34.8678 33.1009 34.9994 33.419 34.9993 33.7507C34.9992 34.0823 34.8674 34.4003 34.6328 34.6347C34.3982 34.8692 34.0801 35.0008 33.7484 35.0007C33.4168 35.0006 33.0988 34.8687 32.8644 34.6341L32.8641 34.6339L24.7839 26.5537L26.3289 25.4197H23.2763H23.274H22.5224C23.0747 25.0157 23.5964 24.5689 24.0826 24.0828C25.3245 22.8408 26.3097 21.3663 26.9819 19.7436C27.654 18.1209 28 16.3817 28 14.6252C28 11.078 26.5909 7.67597 24.0826 5.16767C21.5743 2.65937 18.1723 1.25023 14.625 1.25023C11.0777 1.25023 7.67575 2.65937 5.16745 5.16767C2.65915 7.67597 1.25 11.078 1.25 14.6252C1.25 16.3817 1.59595 18.1209 2.26811 19.7436C2.94027 21.3663 3.92546 22.8408 5.16745 24.0828C6.40943 25.3248 7.88388 26.31 9.50661 26.9821C11.1293 27.6543 12.8686 28.0002 14.625 28.0002C16.3814 28.0002 18.1207 27.6543 19.7434 26.9821C20.4215 26.7012 21.0737 26.3657 21.6939 25.9796L21.846 26.1823C19.2387 27.8125 16.1463 28.5182 13.0717 28.1658C9.66022 27.7748 6.52219 26.1102 4.28539 23.5049C2.04859 20.8996 0.877965 17.5459 1.00772 14.1145C1.13748 10.6832 2.55804 7.42743 4.98521 4.99852C7.41238 2.56961 10.6672 1.14672 14.0984 1.01451C17.5296 0.882296 20.8842 2.05052 23.4911 4.28546C26.098 6.5204 27.7649 9.65723 28.1583 13.0684C28.5517 16.4795 27.6426 19.9135 25.6129 22.6831Z" fill="black" stroke="black" stroke-width="2"/>
</g>
<defs>
<clipPath id="clip0_2_44">
<rect width="36" height="36" fill="white"/>
</clipPath>
</defs>
</svg>
