<svg width="36" height="36" viewBox="0 0 36 36" fill="none" xmlns="http://www.w3.org/2000/svg">
<path d="M31.5 16.875V19.125C31.5 19.4234 31.3815 19.7095 31.1705 19.9205C30.9595 20.1315 30.6734 20.25 30.375 20.25H5.625C5.32663 20.25 5.04048 20.1315 4.82951 19.9205C4.61853 19.7095 4.5 19.4234 4.5 19.125V16.875C4.5 16.5766 4.61853 16.2905 4.82951 16.0795C5.04048 15.8685 5.32663 15.75 5.625 15.75H30.375C30.6734 15.75 30.9595 15.8685 31.1705 16.0795C31.3815 16.2905 31.5 16.5766 31.5 16.875ZM30.375 24.75H5.625C5.32663 24.75 5.04048 24.8685 4.82951 25.0795C4.61853 25.2905 4.5 25.5766 4.5 25.875V28.125C4.5 28.4234 4.61853 28.7095 4.82951 28.9205C5.04048 29.1315 5.32663 29.25 5.625 29.25H30.375C30.6734 29.25 30.9595 29.1315 31.1705 28.9205C31.3815 28.7095 31.5 28.4234 31.5 28.125V25.875C31.5 25.5766 31.3815 25.2905 31.1705 25.0795C30.9595 24.8685 30.6734 24.75 30.375 24.75ZM30.375 6.75H5.625C5.32663 6.75 5.04048 6.86853 4.82951 7.07951C4.61853 7.29048 4.5 7.57663 4.5 7.875V10.125C4.5 10.4234 4.61853 10.7095 4.82951 10.9205C5.04048 11.1315 5.32663 11.25 5.625 11.25H30.375C30.6734 11.25 30.9595 11.1315 31.1705 10.9205C31.3815 10.7095 31.5 10.4234 31.5 10.125V7.875C31.5 7.57663 31.3815 7.29048 31.1705 7.07951C30.9595 6.86853 30.6734 6.75 30.375 6.75Z" fill="black"/>
</svg>
