<svg width="60" height="60" viewBox="0 0 60 60" fill="none" xmlns="http://www.w3.org/2000/svg">
<path d="M52.5 41.25C52.5 42.2 51.975 43.025 51.175 43.45L31.425 54.55C31.025 54.85 30.525 55 30 55C29.475 55 28.975 54.85 28.575 54.55L8.82501 43.45C8.42421 43.2394 8.08879 42.923 7.85519 42.5351C7.6216 42.1472 7.49875 41.7028 7.50001 41.25V18.75C7.50001 17.8 8.02501 16.975 8.82501 16.55L28.575 5.45C28.975 5.15 29.475 5 30 5C30.525 5 31.025 5.15 31.425 5.45L51.175 16.55C51.975 16.975 52.5 17.8 52.5 18.75V41.25ZM12.5 22.5V37.5H15.625V32.5H17.5C18.8261 32.5 20.0979 31.9732 21.0355 31.0355C21.9732 30.0979 22.5 28.8261 22.5 27.5C22.5 26.1739 21.9732 24.9021 21.0355 23.9645C20.0979 23.0268 18.8261 22.5 17.5 22.5H12.5ZM15.625 30V25H16.875C17.5381 25 18.1739 25.2634 18.6428 25.7322C19.1116 26.2011 19.375 26.837 19.375 27.5C19.375 28.163 19.1116 28.7989 18.6428 29.2678C18.1739 29.7366 17.5381 30 16.875 30H15.625ZM24.375 22.5V37.5H27.5V32.5H29.375L31.025 37.5H34.325L32.35 31.525C33.575 30.625 34.375 29.15 34.375 27.5C34.375 26.1739 33.8482 24.9021 32.9105 23.9645C31.9729 23.0268 30.7011 22.5 29.375 22.5H24.375ZM27.5 30V25H28.75C29.4131 25 30.0489 25.2634 30.5178 25.7322C30.9866 26.2011 31.25 26.837 31.25 27.5C31.25 28.163 30.9866 28.7989 30.5178 29.2678C30.0489 29.7366 29.4131 30 28.75 30H27.5ZM42.5 22.5C39.05 22.5 36.25 25.85 36.25 30C36.25 34.15 39.05 37.5 42.5 37.5C45.95 37.5 48.75 34.15 48.75 30C48.75 25.85 45.95 22.5 42.5 22.5ZM42.5 25.625C44.4 25.625 45.95 27.575 45.95 30C45.95 32.425 44.4 34.375 42.5 34.375C40.6 34.375 39.075 32.425 39.075 30C39.075 27.575 40.6 25.625 42.5 25.625Z" fill="black"/>
</svg>
