<svg width="46" height="38" viewBox="0 0 46 38" fill="none" xmlns="http://www.w3.org/2000/svg">
<path d="M45.5 17.125V20.875C45.5 21.3723 45.3025 21.8492 44.9508 22.2008C44.5992 22.5525 44.1223 22.75 43.625 22.75H2.375C1.87772 22.75 1.40081 22.5525 1.04918 22.2008C0.697544 21.8492 0.5 21.3723 0.5 20.875V17.125C0.5 16.6277 0.697544 16.1508 1.04918 15.7992C1.40081 15.4475 1.87772 15.25 2.375 15.25H43.625C44.1223 15.25 44.5992 15.4475 44.9508 15.7992C45.3025 16.1508 45.5 16.6277 45.5 17.125ZM43.625 30.25H2.375C1.87772 30.25 1.40081 30.4475 1.04918 30.7992C0.697544 31.1508 0.5 31.6277 0.5 32.125V35.875C0.5 36.3723 0.697544 36.8492 1.04918 37.2008C1.40081 37.5525 1.87772 37.75 2.375 37.75H43.625C44.1223 37.75 44.5992 37.5525 44.9508 37.2008C45.3025 36.8492 45.5 36.3723 45.5 35.875V32.125C45.5 31.6277 45.3025 31.1508 44.9508 30.7992C44.5992 30.4475 44.1223 30.25 43.625 30.25ZM43.625 0.25H2.375C1.87772 0.25 1.40081 0.447544 1.04918 0.799175C0.697544 1.15081 0.5 1.62772 0.5 2.125V5.875C0.5 6.37228 0.697544 6.84919 1.04918 7.20082C1.40081 7.55246 1.87772 7.75 2.375 7.75H43.625C44.1223 7.75 44.5992 7.55246 44.9508 7.20082C45.3025 6.84919 45.5 6.37228 45.5 5.875V2.125C45.5 1.62772 45.3025 1.15081 44.9508 0.799175C44.5992 0.447544 44.1223 0.25 43.625 0.25Z" fill="#2E3FFF"/>
</svg>
