<svg width="36" height="31" viewBox="0 0 36 31" fill="none" xmlns="http://www.w3.org/2000/svg">
<path d="M35.5 10.6196C35.5 21.5957 19.2828 30.48 18.5922 30.8469C18.4102 30.9452 18.2067 30.9966 18 30.9966C17.7933 30.9966 17.5898 30.9452 17.4078 30.8469C16.7172 30.48 0.5 21.5957 0.5 10.6196C0.502895 8.04216 1.52447 5.5711 3.3406 3.74857C5.15673 1.92603 7.6191 0.900854 10.1875 0.897949C13.4141 0.897949 16.2391 2.29034 18 4.64392C19.7609 2.29034 22.5859 0.897949 25.8125 0.897949C28.3809 0.900854 30.8433 1.92603 32.6594 3.74857C34.4755 5.5711 35.4971 8.04216 35.5 10.6196Z" fill="#FF2C78"/>
</svg>
