<svg width="53" height="54" viewBox="0 0 53 54" fill="none" xmlns="http://www.w3.org/2000/svg">
<path d="M43.1608 15.75H43.0483C42.5712 11.6389 40.5999 7.84651 37.5094 5.09387C34.4188 2.34123 30.4244 0.820312 26.2858 0.820312C22.1471 0.820313 18.1527 2.34123 15.0622 5.09387C11.9716 7.84651 10.0004 11.6389 9.52327 15.75H9.41077C6.92436 15.75 4.53979 16.7377 2.78164 18.4959C1.02349 20.254 0.0357666 22.6386 0.0357666 25.125C0.0357666 27.6114 1.02349 29.996 2.78164 31.7541C4.53979 33.5123 6.92436 34.5 9.41077 34.5H13.1608V17.625C13.1608 14.144 14.5436 10.8056 17.005 8.34423C19.4664 5.88281 22.8048 4.50001 26.2858 4.50001C29.7667 4.50001 33.1051 5.88281 35.5665 8.34423C38.028 10.8056 39.4108 14.144 39.4108 17.625V36.375C39.4095 38.0929 38.8185 39.7583 37.7366 41.0928C36.6547 42.4272 35.1475 43.3498 33.467 43.7063C32.9665 41.9508 31.8429 40.4382 30.307 39.4519C28.771 38.4655 26.928 38.0732 25.1235 38.3485C23.319 38.6238 21.6768 39.5477 20.5047 40.9471C19.3327 42.3465 18.7112 44.1254 18.7568 45.9502C18.8024 47.775 19.512 49.5206 20.7525 50.8597C21.993 52.1988 23.6794 53.0395 25.4954 53.2242C27.3114 53.409 29.1325 52.9251 30.6172 51.8632C32.102 50.8014 33.1486 49.2345 33.5608 47.4563C36.2214 47.0618 38.6526 45.7271 40.4138 43.6942C42.175 41.6613 43.1495 39.0647 43.1608 36.375V34.5C45.6472 34.5 48.0317 33.5123 49.7899 31.7541C51.548 29.996 52.5358 27.6114 52.5358 25.125C52.5358 22.6386 51.548 20.254 49.7899 18.4959C48.0317 16.7377 45.6472 15.75 43.1608 15.75ZM3.78577 25.125C3.78577 23.6332 4.3784 22.2024 5.43329 21.1475C6.48818 20.0926 7.91892 19.5 9.41077 19.5V30.75C7.91892 30.75 6.48818 30.1574 5.43329 29.1025C4.3784 28.0476 3.78577 26.6168 3.78577 25.125ZM26.2858 49.5C25.5441 49.5 24.8191 49.2801 24.2024 48.868C23.5857 48.456 23.105 47.8703 22.8212 47.1851C22.5374 46.4998 22.4631 45.7458 22.6078 45.0184C22.7525 44.291 23.1097 43.6228 23.6341 43.0984C24.1586 42.5739 24.8267 42.2168 25.5542 42.0721C26.2816 41.9274 27.0356 42.0016 27.7208 42.2855C28.4061 42.5693 28.9917 43.0499 29.4038 43.6666C29.8158 44.2833 30.0358 45.0083 30.0358 45.75C30.0358 46.7446 29.6407 47.6984 28.9374 48.4017C28.2342 49.1049 27.2803 49.5 26.2858 49.5ZM43.1608 30.75V19.5C44.6526 19.5 46.0834 20.0926 47.1382 21.1475C48.1931 22.2024 48.7858 23.6332 48.7858 25.125C48.7858 26.6168 48.1931 28.0476 47.1382 29.1025C46.0834 30.1574 44.6526 30.75 43.1608 30.75Z" fill="black"/>
</svg>
