<svg width="61" height="60" viewBox="0 0 61 60" fill="none" xmlns="http://www.w3.org/2000/svg">
<path d="M21.8702 3.68579H11.3068L4.96875 10.433V26.1766H21.8702V3.68579ZM13.4195 10.433H11.3068V5.93487H13.4195V10.433ZM16.5885 10.433H14.4758V5.93487H16.5885V10.433ZM19.7575 10.433H17.6448V5.93487H19.7575V10.433Z" fill="white"/>
<path d="M56.5181 35.8475V34.7229C56.5181 34.1044 56.0428 33.5984 55.4618 33.5984H53.3491C52.7681 33.5984 52.2928 34.1044 52.2928 34.7229V35.8475H51.2364V40.3456C51.2364 40.9641 51.7118 41.4702 52.2928 41.4702H53.3491V49.3419C53.3491 50.5789 52.3984 51.591 51.2364 51.591C50.0744 51.591 49.1237 50.5789 49.1237 49.3419V38.0965C49.1237 35.6113 47.2329 33.5984 44.8984 33.5984C42.5639 33.5984 40.673 35.6113 40.673 38.0965V45.9683H39.6167C39.0357 45.9683 38.5604 46.4744 38.5604 47.0929V51.591H39.6167V52.7156C39.6167 53.3341 40.0921 53.8401 40.673 53.8401H42.7857C43.3667 53.8401 43.8421 53.3341 43.8421 52.7156V51.591H44.8984V47.0929C44.8984 46.4744 44.423 45.9683 43.8421 45.9683H42.7857V38.0965C42.7857 36.8596 43.7364 35.8475 44.8984 35.8475C46.0604 35.8475 47.0111 36.8596 47.0111 38.0965V49.3419C47.0111 51.8272 48.9019 53.8401 51.2364 53.8401C53.5709 53.8401 55.4618 51.8272 55.4618 49.3419V41.4702H56.5181C57.0991 41.4702 57.5744 40.9641 57.5744 40.3456V35.8475H56.5181Z" fill="white"/>
<path d="M10.4617 58.5632L52.7152 1.4366" stroke="white"/>
</svg>
