<svg width="57" height="56" viewBox="0 0 57 56" fill="none" xmlns="http://www.w3.org/2000/svg">
<path d="M10.5714 2.00001C7.62175 1.99569 4.77382 3.0779 2.57141 5.04001V22.96C4.77382 24.9221 7.62175 26.0043 10.5714 26C11.2367 26.061 11.9061 26.061 12.5714 26V49.16C12.5714 50.4861 13.0982 51.7579 14.0359 52.6955C14.9736 53.6332 16.2453 54.16 17.5714 54.16C18.8975 54.16 20.1693 53.6332 21.1069 52.6955C22.0446 51.7579 22.5714 50.4861 22.5714 49.16V14C22.5714 10.8174 21.3071 7.76517 19.0567 5.51473C16.8063 3.26429 13.754 2.00001 10.5714 2.00001ZM46.5714 2.00001C49.5211 1.99569 52.369 3.0779 54.5714 5.04001V22.96C52.369 24.9221 49.5211 26.0043 46.5714 26C45.9061 26.061 45.2367 26.061 44.5714 26V49.16C44.5714 50.4861 44.0446 51.7579 43.1069 52.6955C42.1693 53.6332 40.8975 54.16 39.5714 54.16C38.2453 54.16 36.9736 53.6332 36.0359 52.6955C35.0982 51.7579 34.5714 50.4861 34.5714 49.16V14C34.5714 10.8174 35.8357 7.76517 38.0861 5.51473C40.3366 3.26429 43.3888 2.00001 46.5714 2.00001Z" stroke="white" stroke-width="5" stroke-linecap="round" stroke-linejoin="round"/>
</svg>
