<svg width="51" height="45" viewBox="0 0 51 45" fill="none" xmlns="http://www.w3.org/2000/svg">
<path d="M25.8572 17.5C21.7922 17.5 18.3572 20.935 18.3572 25C18.3572 29.065 21.7922 32.5 25.8572 32.5C29.9222 32.5 33.3572 29.065 33.3572 25C33.3572 20.935 29.9222 17.5 25.8572 17.5Z" fill="black"/>
<path d="M45.8572 7.5H39.3922L32.6247 0.732503C32.3929 0.499896 32.1174 0.315427 31.8141 0.189713C31.5107 0.0640003 31.1855 -0.000473623 30.8572 2.61918e-06H20.8572C20.5288 -0.000473623 20.2036 0.0640003 19.9003 0.189713C19.5969 0.315427 19.3214 0.499896 19.0897 0.732503L12.3222 7.5H5.85718C3.09968 7.5 0.857178 9.7425 0.857178 12.5V40C0.857178 42.7575 3.09968 45 5.85718 45H45.8572C48.6147 45 50.8572 42.7575 50.8572 40V12.5C50.8572 9.7425 48.6147 7.5 45.8572 7.5ZM25.8572 37.5C19.0822 37.5 13.3572 31.775 13.3572 25C13.3572 18.225 19.0822 12.5 25.8572 12.5C32.6322 12.5 38.3572 18.225 38.3572 25C38.3572 31.775 32.6322 37.5 25.8572 37.5Z" fill="black"/>
</svg>
