<svg width="51" height="31" viewBox="0 0 51 31" fill="none" xmlns="http://www.w3.org/2000/svg">
<path d="M45.0262 0.5H5.02625C3.70016 0.5 2.42839 1.02678 1.49071 1.96447C0.553029 2.90215 0.0262451 4.17392 0.0262451 5.5V20.5C0.0262451 21.8261 0.553029 23.0979 1.49071 24.0355C2.42839 24.9732 3.70016 25.5 5.02625 25.5H7.52625V28C7.52625 29.5 8.52625 30.5 10.0262 30.5H15.0262C16.5262 30.5 17.5262 29.5 17.5262 28V25.5H32.5262V28C32.5262 29.5 33.5262 30.5 35.0262 30.5H40.0262C41.5262 30.5 42.5262 29.5 42.5262 28V25.5H45.0262C46.3523 25.5 47.6241 24.9732 48.5618 24.0355C49.4995 23.0979 50.0262 21.8261 50.0262 20.5V5.5C50.0262 4.17392 49.4995 2.90215 48.5618 1.96447C47.6241 1.02678 46.3523 0.5 45.0262 0.5ZM30.0262 13H5.02625V8H30.0262V13ZM40.0262 15.5C38.7002 15.5 37.4284 14.9732 36.4907 14.0355C35.553 13.0979 35.0262 11.8261 35.0262 10.5C35.0262 9.17392 35.553 7.90215 36.4907 6.96447C37.4284 6.02679 38.7002 5.5 40.0262 5.5C41.3523 5.5 42.6241 6.02679 43.5618 6.96447C44.4995 7.90215 45.0262 9.17392 45.0262 10.5C45.0262 11.8261 44.4995 13.0979 43.5618 14.0355C42.6241 14.9732 41.3523 15.5 40.0262 15.5ZM10.0262 20.5H5.02625V18H10.0262V20.5ZM20.0262 20.5H15.0262V18H20.0262V20.5ZM30.0262 20.5H25.0262V18H30.0262V20.5Z" fill="black"/>
</svg>
