<svg width="51" height="31" viewBox="0 0 51 31" fill="none" xmlns="http://www.w3.org/2000/svg">
<path d="M45.1429 0.5H5.14288C3.8168 0.5 2.54503 1.02678 1.60735 1.96447C0.669667 2.90215 0.142883 4.17392 0.142883 5.5V20.5C0.142883 21.8261 0.669667 23.0979 1.60735 24.0355C2.54503 24.9732 3.8168 25.5 5.14288 25.5H7.64288V28C7.64288 29.5 8.64288 30.5 10.1429 30.5H15.1429C16.6429 30.5 17.6429 29.5 17.6429 28V25.5H32.6429V28C32.6429 29.5 33.6429 30.5 35.1429 30.5H40.1429C41.6429 30.5 42.6429 29.5 42.6429 28V25.5H45.1429C46.469 25.5 47.7407 24.9732 48.6784 24.0355C49.6161 23.0979 50.1429 21.8261 50.1429 20.5V5.5C50.1429 4.17392 49.6161 2.90215 48.6784 1.96447C47.7407 1.02678 46.469 0.5 45.1429 0.5ZM30.1429 13H5.14288V8H30.1429V13ZM40.1429 15.5C38.8168 15.5 37.545 14.9732 36.6073 14.0355C35.6697 13.0979 35.1429 11.8261 35.1429 10.5C35.1429 9.17392 35.6697 7.90215 36.6073 6.96447C37.545 6.02679 38.8168 5.5 40.1429 5.5C41.469 5.5 42.7407 6.02679 43.6784 6.96447C44.6161 7.90215 45.1429 9.17392 45.1429 10.5C45.1429 11.8261 44.6161 13.0979 43.6784 14.0355C42.7407 14.9732 41.469 15.5 40.1429 15.5ZM10.1429 20.5H5.14288V18H10.1429V20.5ZM20.1429 20.5H15.1429V18H20.1429V20.5ZM30.1429 20.5H25.1429V18H30.1429V20.5Z" fill="white"/>
</svg>
