<svg width="36" height="30" viewBox="0 0 36 30" fill="none" xmlns="http://www.w3.org/2000/svg">
<path d="M25.8125 0.3125C22.5312 0.3125 19.6781 1.79219 18 4.27187C16.3219 1.79219 13.4688 0.3125 10.1875 0.3125C7.70198 0.315395 5.3191 1.30404 3.56157 3.06157C1.80404 4.8191 0.815395 7.20198 0.8125 9.6875C0.8125 14.25 3.65625 18.9984 9.26562 23.7984C11.836 25.9887 14.6125 27.9248 17.5563 29.5797C17.6927 29.653 17.8451 29.6914 18 29.6914C18.1549 29.6914 18.3073 29.653 18.4437 29.5797C21.3875 27.9248 24.164 25.9887 26.7344 23.7984C32.3438 18.9984 35.1875 14.25 35.1875 9.6875C35.1846 7.20198 34.196 4.8191 32.4384 3.06157C30.6809 1.30404 28.298 0.315395 25.8125 0.3125ZM18 27.6734C15.4359 26.1938 2.6875 18.3937 2.6875 9.6875C2.68957 7.69901 3.48041 5.79256 4.88648 4.38648C6.29256 2.98041 8.19901 2.18957 10.1875 2.1875C13.3562 2.1875 16.0172 3.87969 17.1328 6.60469C17.2034 6.77663 17.3236 6.9237 17.478 7.02721C17.6324 7.13071 17.8141 7.18597 18 7.18597C18.1859 7.18597 18.3676 7.13071 18.522 7.02721C18.6764 6.9237 18.7966 6.77663 18.8672 6.60469C19.9828 3.87969 22.6437 2.1875 25.8125 2.1875C27.801 2.18957 29.7074 2.98041 31.1135 4.38648C32.5196 5.79256 33.3104 7.69901 33.3125 9.6875C33.3125 18.3937 20.5641 26.1938 18 27.6734Z" fill="black"/>
</svg>
