<svg width="55" height="44" viewBox="0 0 55 44" fill="none" xmlns="http://www.w3.org/2000/svg">
<path fill-rule="evenodd" clip-rule="evenodd" d="M28.6186 3.875C21.7436 3.875 16.2086 9.375 16.2086 16.1175C16.2086 17.2725 16.3711 18.39 16.6711 19.445C17.9136 19.805 19.0786 20.345 20.1286 21.045C20.3446 21.1758 20.5319 21.3489 20.6793 21.5539C20.8268 21.7589 20.9313 21.9916 20.9866 22.238C21.0419 22.4844 21.0469 22.7394 21.0012 22.9878C20.9556 23.2361 20.8602 23.4727 20.7209 23.6833C20.5815 23.8939 20.4011 24.0742 20.1904 24.2133C19.9797 24.3525 19.743 24.4476 19.4946 24.4931C19.2462 24.5385 18.9912 24.5334 18.7449 24.4778C18.4986 24.4223 18.266 24.3176 18.0611 24.17C16.6034 23.2041 14.8922 22.6917 13.1436 22.6975C8.24109 22.6975 4.30359 26.6225 4.30359 31.4125C4.30359 36.2025 8.24109 40.125 13.1436 40.125H38.1436C45.0186 40.125 50.5536 34.625 50.5536 27.8825C50.5536 22.54 47.0786 17.9775 42.2086 16.3125C40.9001 15.865 39.5265 15.6369 38.1436 15.6375C36.6861 15.6375 35.2936 15.8875 33.9986 16.3375C33.5321 16.4898 33.0244 16.4531 32.5846 16.2354C32.1448 16.0176 31.808 15.6361 31.6463 15.1727C31.4846 14.7093 31.5111 14.2011 31.72 13.757C31.9289 13.3129 32.3036 12.9684 32.7636 12.7975C35.1883 11.951 37.7787 11.6898 40.3236 12.035C39.4497 9.63546 37.8566 7.56409 35.7617 6.10367C33.6668 4.64324 31.1723 3.86493 28.6186 3.875ZM44.5061 13.1775C43.1086 5.735 36.5136 0.125 28.6186 0.125C19.7136 0.125 12.4586 7.265 12.4586 16.1175C12.4586 17.085 12.5461 18.035 12.7136 18.955C5.97859 19.18 0.553589 24.65 0.553589 31.4125C0.553589 38.315 6.21109 43.875 13.1436 43.875H38.1436C47.0461 43.875 54.3036 36.735 54.3036 27.8825C54.3036 21.2725 50.2561 15.62 44.5061 13.1775Z" fill="white"/>
</svg>
