<svg width="61" height="60" viewBox="0 0 61 60" fill="none" xmlns="http://www.w3.org/2000/svg">
<path d="M21.841 3.68579H11.2777L4.93964 10.433V26.1766H21.841V3.68579ZM13.3903 10.433H11.2777V5.93487H13.3903V10.433ZM16.5594 10.433H14.4467V5.93487H16.5594V10.433ZM19.7284 10.433H17.6157V5.93487H19.7284V10.433Z" fill="black"/>
<path d="M56.489 35.8475V34.7229C56.489 34.1044 56.0136 33.5984 55.4327 33.5984H53.32C52.739 33.5984 52.2636 34.1044 52.2636 34.7229V35.8475H51.2073V40.3456C51.2073 40.9641 51.6827 41.4702 52.2636 41.4702H53.32V49.3419C53.32 50.5789 52.3693 51.591 51.2073 51.591C50.0453 51.591 49.0946 50.5789 49.0946 49.3419V38.0965C49.0946 35.6113 47.2038 33.5984 44.8693 33.5984C42.5348 33.5984 40.6439 35.6113 40.6439 38.0965V45.9683H39.5876C39.0066 45.9683 38.5312 46.4744 38.5312 47.0929V51.591H39.5876V52.7156C39.5876 53.3341 40.0629 53.8401 40.6439 53.8401H42.7566C43.3376 53.8401 43.8129 53.3341 43.8129 52.7156V51.591H44.8693V47.0929C44.8693 46.4744 44.3939 45.9683 43.8129 45.9683H42.7566V38.0965C42.7566 36.8596 43.7073 35.8475 44.8693 35.8475C46.0312 35.8475 46.982 36.8596 46.982 38.0965V49.3419C46.982 51.8272 48.8728 53.8401 51.2073 53.8401C53.5418 53.8401 55.4327 51.8272 55.4327 49.3419V41.4702H56.489C57.07 41.4702 57.5453 40.9641 57.5453 40.3456V35.8475H56.489Z" fill="black"/>
<path d="M10.4326 58.5632L52.6861 1.4366" stroke="black"/>
</svg>
